<?xml version="1.0" encoding="UTF-8"?><svg id="Layer_1" xmlns="http://www.w3.org/2000/svg" viewBox="0 0 961.42534 143.1328"><defs><style>.cls-1{fill:#0b2633;}.cls-1,.cls-2{stroke-width:0px;}.cls-2{fill:#154b66;}</style></defs><path id="Combined-Shape" class="cls-2" d="M105.96296,109.6826l-10.9893,11.00979-.1206.12011c-.6386.6396-1.3667.7744-1.8652.7744-.4971,0-1.2251-.1348-1.86378-.7744L20.10646,49.665c-1.0293-1.0312-1.0293-2.7085-.0009-3.7387l24.83-24.875c.6387-.6397,1.3672-.7745,1.8653-.7745.4975,0,1.227.1348,1.8657.7745l46.3071,46.393,13.6783-13.7036L62.34576,7.3486c-4.1533-4.1596-9.6733-6.4521-15.5449-6.4521-5.8721,0-11.3921,2.2925-15.5445,6.4521L6.42686,32.2236c-8.5689,8.5835-8.5694,22.5567,0,31.1441l71.01753,71.1469c4.15088,4.1602,9.67139,6.4522,15.54347,6.4522,5.8725,0,11.3926-2.292,15.5449-6.4522l.1192-.1191,23.6259-23.6699,1.0845-1.085c7.897-7.9121,8.4976-20.3916,1.8364-29.0224l-29.123,29.1767-.1128-.1123ZM222.45616,31.3271l-24.8291-24.875c-4.1509-4.1596-9.6709-6.4521-15.5435-6.4521s-11.3926,2.2925-15.5435,6.4521l-13.7641,13.7896-41.2422,41.3164-16.1875,16.21629-1.0835,1.08691c-3.59034,3.5977-5.65919,8.1426-6.23829,12.8389-.70361,5.7109.80469,11.6474,4.55029,16.3848l5.9019-5.9131,9.2197-9.2373c.0859-.1231.1367-.2618.2456-.3711l1.0854-1.0879.1822-.1817,57.2436-57.3496,13.7661-13.7895c.6377-.6397,1.3658-.77441,1.8643-.77441.4976,0,1.2256.13471,1.8643.77441l24.8305,24.876c.6387.63859.7725,1.3681.7725,1.8681,0,.4981-.1338,1.23-.7725,1.8696l-42.6489,42.7266.0225.0215-45.045,45.1289c3.8496,3.0273,8.5591,4.6865,13.5293,4.6865,5.8731,0,11.3931-2.2929,15.544-6.4521l72.2773-72.4087c4.1514-4.1602,6.4365-9.6904,6.4365-15.5723,0-5.8833-2.2851-11.4131-6.4379-15.5718Z"/><path class="cls-1" d="M252.21686,82.6348h8.0684l12.1337,36.8994h.127l12.3242-36.8994h7.4961l-16.3262,47.51559h-7.4965l-16.3267-47.51559Z"/><path class="cls-1" d="M290.08206,113.0117c0-12.5351,8.1953-17.6504,16.4536-17.6504,8.1949,0,16.4537,5.1153,16.4537,17.6504,0,12.4063-8.2588,17.6504-16.4537,17.6504s-16.4536-5.2441-16.4536-17.6504ZM315.11186,113.0117c0-6.331-2.668-10.9355-8.5762-10.9355-5.6538,0-8.5761,4.0927-8.5761,10.9355,0,6.459,2.605,11.0635,8.5761,11.0635,5.6539,0,8.5762-4.09281,8.5762-11.0635Z"/><path class="cls-1" d="M328.83646,82.6348h7.87749v47.3242h-7.87749v-47.3242Z"/><path class="cls-1" d="M346.94246,121.0693v-18.8017h-5.84471v-6.2676h5.84471v-11.8311h7.81349v11.8311h8.7031v6.2676h-8.7031v16.8193c0,3.64549,1.08,5.1162,4.95551,5.1162,1.14309,0,2.60449-.1914,3.36669-.4482v6.2041c-.82569.19139-3.748.4472-5.7178.4472-8.5761,0-10.41789-3.1972-10.41789-9.3369Z"/><path class="cls-1" d="M379.53425,82.6348h8.0044v47.3242h-8.0044v-47.3242Z"/><path class="cls-1" d="M393.89265,96h7.8774v4.6045c2.1597-2.3018,6.2256-5.2432,12.3242-5.2432,5.90821,0,9.7203,3.5166,9.7203,10.2315v24.3662h-7.878v-22.3828c0-3.7735-1.5879-5.5-5.0185-5.5s-6.2891,1.79-9.148,4.4121v23.4707h-7.8774v-33.959Z"/><path class="cls-1" d="M425.21446,96h8.19529l8.2583,25.0693h.1269l8.1953-25.0693h7.5601l-12.1973,34.0225h-7.9409l-12.19769-34.0225Z"/><path class="cls-1" d="M458.69535,113.0117c0-12.9189,9.084-17.6504,16.0723-17.6504,7.56,0,14.8022,4.54009,14.8022,18.3535v1.8545h-23.061c.3179,6.1397,4.0659,8.8252,9.021,8.8252,4.3838,0,6.9248-1.4707,9.4658-3.9648l4.1289,4.0928c-3.49409,3.9013-8.1313,6.1396-14.1665,6.1396-8.4492,0-16.2627-5.17971-16.2627-17.6504ZM482.39115,109.6855c-.4443-5.1796-2.9863-7.9296-7.6865-7.9296-3.812,0-7.30619,2.1748-8.0689,7.9296h15.7554Z"/><path class="cls-1" d="M491.98585,125.29l4.2579-4.7959c2.541,2.1748,6.289,4.0284,10.6093,4.0284,4.19141,0,6.73241-1.087,6.73241-3.9004,0-2.75-3.42961-3.5811-7.496-4.5411-5.78131-1.3427-12.70511-2.8779-12.70511-10.7441,0-5.9463,5.082-9.9756,12.5136-9.9756,6.418,0,10.35551,1.8545,13.8497,4.7959l-3.7481,5.11619c-2.4766-2.04679-6.4785-3.709-9.5273-3.709-4.3223,0-5.71879,1.53421-5.71879,3.45321,0,2.75,3.36719,3.581,7.36919,4.4765,5.7812,1.27929,12.832,2.75,12.832,10.6797,0,7.1631-6.416,10.4883-14.1016,10.4883-6.2265,0-11.8164-2.2383-14.8672-5.3721Z"/><path class="cls-1" d="M528.51715,121.0693v-18.8017h-5.8438v-6.2676h5.8438v-11.8311h7.8144v11.8311h8.7032v6.2676h-8.7032v16.8193c0,3.64549,1.0801,5.1162,4.9551,5.1162,1.1426,0,2.6055-.1914,3.3672-.4482v6.2041c-.8262.19139-3.748.4472-5.7168.4472-8.5781,0-10.4199-3.1972-10.4199-9.3369Z"/><path class="cls-1" d="M549.54646,96h7.81439v4.6689c2.60361-2.8779,6.4161-5.3076,11.56061-5.3076,5.65429,0,7.87889,2.2373,9.21289,5.5635,2.6679-2.94141,6.6699-5.5635,11.8164-5.5635,6.8594,0,9.84571,4.1563,9.84571,10.2315v24.3662h-7.81251v-22.3828c0-3.7735-1.0801-5.5-4.7656-5.5-3.1758,0-5.7168,1.79-8.6387,4.4121v23.4707h-7.8145v-22.3828c0-3.7735-1.08-5.5-4.7636-5.5-3.1133,0-5.7188,1.79-8.6407,4.4121v23.4707h-7.81439v-33.959Z"/><path class="cls-1" d="M604.43905,113.0117c0-12.9189,9.0839-17.6504,16.0722-17.6504,7.5606,0,14.8008,4.54009,14.8008,18.3535v1.8545h-23.05859c.31639,6.1397,4.06449,8.8252,9.01949,8.8252,4.3848,0,6.9258-1.4707,9.4668-3.9648l4.129,4.0928c-3.4942,3.9013-8.1329,6.1396-14.1661,6.1396-8.44919,0-16.2636-5.17971-16.2636-17.6504ZM628.13435,109.6855c-.4434-5.1796-2.9864-7.9296-7.6856-7.9296-3.8125,0-7.3066,2.1748-8.06829,7.9296h15.75389Z"/><path class="cls-1" d="M640.27105,96h7.8789v4.6045c2.1582-2.3018,6.2246-5.2432,12.3242-5.2432,5.90631,0,9.7188,3.5166,9.7188,10.2315v24.3662h-7.877v-22.3828c0-3.7735-1.5879-5.5-5.01949-5.5-3.42971,0-6.28911,1.79-9.14651,4.4121v23.4707h-7.8789v-33.959Z"/><path class="cls-1" d="M679.34335,121.0693v-18.8017h-5.8438v-6.2676h5.8438v-11.8311h7.8144v11.8311h8.7031v6.2676h-8.7031v16.8193c0,3.64549,1.0801,5.1162,4.9551,5.1162,1.1445,0,2.6055-.1914,3.3672-.4482v6.2041c-.8262.19139-3.7481.4472-5.7168.4472-8.5762,0-10.4199-3.1972-10.4199-9.3369Z"/><path class="cls-1" d="M714.09525,82.6348h7.9414v18.8652h21.3457v-18.8652h7.9414v47.3242h-7.9414v-21.0401h-21.3457v21.0401h-7.9414v-47.3242Z"/><path class="cls-1" d="M755.96446,113.0117c0-12.5351,8.19528-17.6504,16.45308-17.6504,8.1953,0,16.4531,5.1153,16.4531,17.6504,0,12.4063-8.2578,17.6504-16.4531,17.6504s-16.45308-5.2441-16.45308-17.6504ZM780.99374,113.0117c0-6.331-2.668-10.9355-8.5762-10.9355-5.6524,0-8.5762,4.0927-8.5762,10.9355,0,6.459,2.6055,11.0635,8.5762,11.0635,5.6543,0,8.5762-4.09281,8.5762-11.0635Z"/><path class="cls-1" d="M795.86284,82.6348h7.8769v47.3242h-7.8769v-47.3242Z"/><path class="cls-1" d="M809.07764,113.0762c0-11.7676,5.7813-17.7149,14.42-17.7149,3.6211,0,7.1796,1.4707,9.6562,4.2842v-17.0107h7.8145v39.0107c0,4.0928.2539,6.58689,1.0156,8.3135h-8.0684c-.4433-.96-.7617-2.878-.7617-4.6045-2.4766,2.87789-5.7168,5.1152-10.7363,5.1152-7.6856,0-13.3399-5.6269-13.3399-17.3935ZM833.15384,119.7256v-13.6201c-2.0957-2.751-5.1465-4.2217-7.94138-4.2217-5.90822,0-8.32232,3.8369-8.32232,11.3838,0,7.1621,3.0508,10.7441,8.0684,10.7441,3.2402,0,6.3535-2.0469,8.1953-4.2861Z"/><path class="cls-1" d="M848.08546,83.27439h8.004v6.84281h-8.004v-6.84281ZM848.14994,96h7.877v33.959h-7.877v-33.959Z"/><path class="cls-1" d="M863.20654,96h7.877v4.6045c2.1602-2.3018,6.2246-5.2432,12.3242-5.2432,5.9082,0,9.7188,3.5166,9.7188,10.2315v24.3662h-7.877v-22.3828c0-3.7735-1.5879-5.5-5.0176-5.5-3.4316,0-6.289,1.79-9.1484,4.4121v23.4707h-7.877v-33.959Z"/><path class="cls-1" d="M896.05224,134.8193c0-3.3896,2.0977-5.8203,5.5274-7.1631-1.7149-.8945-2.6055-2.3017-2.6055-4.1572,0-2.55761,2.0332-4.668,4.5742-6.2021-3.4296-2.1748-5.33588-5.628-5.33588-9.7852,0-6.9707,5.33588-12.1504,14.166-12.1504,4.63868,0,8.06838,1.5342,10.35548,3.58109,2.1601-1.72659,5.5898-3.07029,8.3867-3.32519v6.3955c-1.5254,0-3.6855.1914-5.90818.8945.76168,1.2149,1.207,2.8135,1.207,4.6045,0,7.0986-5.27342,12.0859-14.041,12.0859-1.90432,0-3.04882-.2548-4.70122-.7021-1.0156.5752-1.71478,1.2783-1.71478,2.1738,0,1.3428.89058,1.791,3.875,2.0469l5.97268.3828c9.9746.6406,13.9121,3.3262,13.9121,9.2735,0,6.9707-6.9883,10.3603-17.4063,10.3603-11.6269,0-16.2637-3.3896-16.2637-8.3135ZM922.79834,133.4766c0-2.4307-1.7168-3.32621-8.5761-3.7735l-5.8457-.3838c-.6993,0-1.334-.0644-2.0332-.1924-2.2227,1.02349-3.1114,2.6221-3.1114,4.3497,0,3.00479,3.4297,3.96379,10.291,3.96379,5.7168,0,9.2754-1.53419,9.2754-3.96379ZM919.30424,107.7676c0-4.2207-2.4141-6.5235-6.8613-6.5235-4.3203,0-6.8614,2.3672-6.8614,6.5235,0,4.1572,2.6055,6.3945,6.92392,6.3945,4.25778,0,6.79878-2.2373,6.79878-6.3945Z"/><path class="cls-1" d="M932.45654,125.29l4.25592-4.7959c2.541,2.1748,6.28908,4.0284,10.60938,4.0284,4.1933,0,6.7344-1.087,6.7344-3.9004,0-2.75-3.4317-3.5811-7.4981-4.5411-5.7793-1.3427-12.7051-2.8779-12.7051-10.7441,0-5.9463,5.084-9.9756,12.5157-9.9756,6.416,0,10.3554,1.8545,13.8496,4.7959l-3.7481,5.11619c-2.4785-2.04679-6.4805-3.709-9.5293-3.709-4.3203,0-5.7187,1.53421-5.7187,3.45321,0,2.75,3.36722,3.581,7.3691,4.4765,5.7813,1.27929,12.834,2.75,12.834,10.6797,0,7.1631-6.416,10.4883-14.1035,10.4883-6.2266,0-11.81638-2.2383-14.8653-5.3721Z"/></svg>