<?xml version="1.0" encoding="UTF-8"?><svg id="Layer_1" xmlns="http://www.w3.org/2000/svg" viewBox="0 0 382.51012 236.18999"><defs><style>.cls-1{fill:#2ba0bf;stroke-width:0px;}</style></defs><path id="Combined-Shape" class="cls-1" d="M177.07003,183.29l-18.36002,18.39999-.20001.2c-1.07001,1.07001-2.28,1.28999-3.12,1.28999s-2.04999-.23-3.12-1.28999L33.59002,82.98999c-1.72-1.72-1.72-4.53,0-6.25l41.49001-41.57c1.07001-1.07,2.28-1.29,3.12-1.29s2.05.22,3.12,1.29l77.39,77.53,22.85999-22.9L104.18999,12.26999c-6.94-6.95-16.17001-10.78-25.98-10.78s-19.03999,3.83-25.98,10.78L10.73999,53.83999c-14.31999,14.34-14.31999,37.7,0,52.05l118.68001,118.90001c6.92999,6.95001,16.16,10.78,25.98001,10.78s19.04001-3.82999,25.98001-10.78l.20001-.2,39.48001-39.56,1.81-1.81c13.20001-13.22,14.20001-34.08,3.07001-48.5l-48.66998,48.75999-.19-.19h-.01004ZM371.75005,52.35l-41.5-41.57c-6.94-6.95-16.16-10.78-25.98001-10.78s-19.04001,3.83-25.98001,10.78l-23,23.04-68.91998,69.05-27.04999,27.10001-1.81,1.82001c-6,6.00999-9.45999,13.61-10.42999,21.46001-1.17999,9.55,1.35001,19.45999,7.60999,27.38l9.85999-9.88,15.41-15.44c.14001-.2.23001-.44.41-.62l1.81-1.82001.29999-.3,95.66-95.84,23.01001-23.04c1.07001-1.07,2.28-1.29,3.10999-1.29s2.04999.22,3.12,1.29l41.50003,41.57c1.07001,1.07,1.28998,2.29,1.28998,3.12s-.21997,2.06-1.28998,3.12l-71.26999,71.39999.04001.03999-75.26999,75.42c6.42999,5.06,14.29999,7.82999,22.61002,7.82999,9.81,0,19.04001-3.82999,25.98001-10.78l120.78-121.01001c6.94-6.95,10.76001-16.19,10.76001-26.02s-3.82001-19.07-10.76001-26.02l-.00006-.00998Z"/></svg>